<svg xmlns="http://www.w3.org/2000/svg" width="64" height="64"><g><path d="M61.439 32.184l-6.507-7.441.907-9.841-9.628-2.187-5.044-8.531-9.064 3.894-9.068-3.894-5.04 8.507-9.628 2.161.907 9.868-6.507 7.464 6.507 7.441-.907 9.87 9.628 2.189 5.04 8.507 9.067-3.92 9.065 3.891 5.04-8.507 9.628-2.187-.907-9.841zm-36.323 10.7l-6.349-6.4a2.656 2.656 0 010-3.76l.187-.187a2.688 2.688 0 013.787 0l4.294 4.32 13.732-13.765a2.688 2.688 0 013.787 0l.187.187a2.656 2.656 0 010 3.76L28.956 42.884a2.753 2.753 0 01-3.84 0z" style="fill:#00a19a"/></g></svg>