<svg xmlns="http://www.w3.org/2000/svg" viewBox="0 0 240 240"><defs><style>.cls-1{fill:#fff;}.cls-2{fill:#e7e7e7;}</style></defs><g id="Capa_2" data-name="Capa 2"><g id="Capa_1-2" data-name="Capa 1"><g id="Componente_106_1" data-name="Componente 106 1"><circle id="Elipse_355" data-name="Elipse 355" class="cls-1" cx="120" cy="120" r="120"/><path id="Sustracci贸n_6" data-name="Sustracci贸n 6" class="cls-2" d="M32.48,202.1h0A119.51,119.51,0,0,1,0,120,121.17,121.17,0,0,1,2.44,95.82,119.93,119.93,0,0,1,95.82,2.44a121.15,121.15,0,0,1,48.36,0A120,120,0,0,1,221.55,184a121,121,0,0,1-13.26,17.31c-10.09-37-46.19-62.77-87.79-62.77-42,0-78.24,26.16-88,63.61h0ZM120,43.13a47,47,0,1,0,47,47A47,47,0,0,0,120,43.13Z"/></g><g id="Componente_106_2" data-name="Componente 106 2"><circle id="Elipse_355-4" data-name="Elipse 355-4" class="cls-1" cx="120" cy="120" r="120"/><path id="Sustracci贸n_6-4" data-name="Sustracci贸n 6-4" class="cls-2" d="M32.48,202.1h0A119.51,119.51,0,0,1,0,120,121.17,121.17,0,0,1,2.44,95.82,119.93,119.93,0,0,1,95.82,2.44a121.15,121.15,0,0,1,48.36,0A120,120,0,0,1,221.55,184a121,121,0,0,1-13.26,17.31c-10.09-37-46.19-62.77-87.79-62.77-42,0-78.24,26.16-88,63.61h0ZM120,43.13a47,47,0,1,0,47,47A47,47,0,0,0,120,43.13Z"/></g></g></g></svg>