<svg xmlns="http://www.w3.org/2000/svg" width="64.073" height="57.442" viewBox="0 0 64.073 57.442">
  <path id="Trazado_4648" data-name="Trazado 4648" d="M99.863,60.609l-27.651-4.6a1.1,1.1,0,0,0-1.271.909L68.96,68.844,60.91,58.382a1.1,1.1,0,0,0-1.549-.2L37.145,75.273a1.1,1.1,0,0,0-.2,1.549L50.556,94.516a1.065,1.065,0,0,0,.121.123V109.59a3.855,3.855,0,0,0,3.851,3.851H93.221a3.855,3.855,0,0,0,3.851-3.851V84.138l3.7-22.258a1.1,1.1,0,0,0-.909-1.271Zm-5,28.529H92.609a3.613,3.613,0,0,0-7.135,0H83.33a11.775,11.775,0,0,0-20,.014,1.1,1.1,0,0,0-.136-.014H52.886v-8.3A1.643,1.643,0,0,1,54.527,79.2H93.221a1.643,1.643,0,0,1,1.641,1.641Zm-4.412.577a1.409,1.409,0,1,1-1.409-1.409A1.411,1.411,0,0,1,90.45,89.716ZM73.333,85.794a9.577,9.577,0,1,1-9.577,9.577A9.588,9.588,0,0,1,73.333,85.794Zm-8.145-8.807H63.932V74.778a1.1,1.1,0,0,0-1.1-1.1H56.2a1.1,1.1,0,0,0-1.1,1.1v2.209h-.568a3.855,3.855,0,0,0-3.851,3.851v4.323L44.4,77.006,59.176,65.639l7.273,9.453Zm-3.466,0H57.3v-1.1h4.419Zm30.659,0H84.807l-3.65-4.576A5.424,5.424,0,0,0,76.9,70.359H74.587l1.305-7.854,18.388,3.056ZM72.52,72.569H76.9a3.226,3.226,0,0,1,2.535,1.22l2.551,3.2H67.842l1.979-2.973A3.235,3.235,0,0,1,72.52,72.569ZM39.367,76.35,59.832,60.6l8.777,11.408a5.478,5.478,0,0,0-.628.778l-.24.36-7.488-9.733a1.1,1.1,0,0,0-1.549-.2L42.18,75.929a1.1,1.1,0,0,0-.2,1.549l8.7,11.306v2.265Zm53.854,34.882H54.527a1.643,1.643,0,0,1-1.641-1.641V91.348h9.369a11.786,11.786,0,1,0,22.157,0h1.405a3.611,3.611,0,0,0,6.45,0h2.6V109.59a1.644,1.644,0,0,1-1.642,1.641Zm2.627-33.2a3.852,3.852,0,0,0-1.269-.791l2.062-12.406a1.1,1.1,0,0,0-.909-1.271L75.165,60.145a1.1,1.1,0,0,0-1.271.909l-1.548,9.312a5.443,5.443,0,0,0-1.44.239l2.033-12.229,25.472,4.233Z" transform="translate(-36.714 -55.999)" fill="#c2c2c2"/>
</svg>
