<svg xmlns="http://www.w3.org/2000/svg" width="147.573" height="128.264" viewBox="0 0 147.573 128.264">
  <g id="logo_clavis_propuesta_2_copy_4_copia_26_1_" data-name="logo_clavis_propuesta 2 copy 4 copia 26 (1)" transform="translate(-37.038 -55.28)">
    <g id="Grupo_9408" data-name="Grupo 9408" transform="translate(37.262 55.28)">
      <g id="Grupo_9404" data-name="Grupo 9404" transform="translate(0 119.909)">
        <path id="Trazado_4190" data-name="Trazado 4190" d="M154.951,637.5c0,.141-.08.21-.238.21h-1.062v2.362a.338.338,0,0,0,.379.385,1.3,1.3,0,0,0,.629-.241.3.3,0,0,1,.164-.049c.06,0,.106.04.141.123l.086.2a.511.511,0,0,1,.049.192.284.284,0,0,1-.118.184,1.224,1.224,0,0,1-.3.187,1.859,1.859,0,0,1-.758.189,1.679,1.679,0,0,1-.537-.069.845.845,0,0,1-.336-.209,1.13,1.13,0,0,1-.3-.847v-2.4h-.316c-.158,0-.238-.072-.238-.215v-.215a.183.183,0,0,1,.046-.135.334.334,0,0,1,.178-.075l.376-.109.144-.884c.029-.167.095-.25.2-.25h.313a.178.178,0,0,1,.143.069.276.276,0,0,1,.057.178v.849h1.062c.158,0,.238.069.238.207Z" transform="translate(-152.19 -634.952)" fill="#00a19a"/>
        <path id="Trazado_4191" data-name="Trazado 4191" d="M167.623,641.731l0,.072a1.085,1.085,0,0,0,.327.827,1.279,1.279,0,0,0,.93.33,1.71,1.71,0,0,0,.993-.319.279.279,0,0,1,.155-.06.223.223,0,0,1,.21.141l.1.209a.386.386,0,0,1,.034.161.278.278,0,0,1-.077.178.785.785,0,0,1-.2.167,1.4,1.4,0,0,1-.287.132,3.223,3.223,0,0,1-.336.095,3.469,3.469,0,0,1-.723.075,2.159,2.159,0,0,1-.758-.144,1.839,1.839,0,0,1-.66-.419,2.1,2.1,0,0,1-.6-1.576c0-1.162.408-1.883,1.225-2.167a2.585,2.585,0,0,1,1.478-.046,1.426,1.426,0,0,1,.491.255,1.22,1.22,0,0,1,.436,1,1.071,1.071,0,0,1-.511.959,2.153,2.153,0,0,1-1.182.29A3.628,3.628,0,0,1,167.623,641.731Zm1.854-1.1c0-.359-.241-.537-.723-.537a1.006,1.006,0,0,0-.964.505,1.166,1.166,0,0,0-.129.436,1.823,1.823,0,0,0,.824.161C169.147,641.2,169.477,641.011,169.477,640.635Z" transform="translate(-162.557 -637.426)" fill="#00a19a"/>
        <path id="Trazado_4192" data-name="Trazado 4192" d="M198.024,643.469a.174.174,0,0,1-.2.2h-.364c-.1,0-.158-.02-.178-.057a.3.3,0,0,1-.034-.106c0-.032-.009-.069-.014-.115-.014-.123-.037-.255-.063-.4a1.431,1.431,0,0,1-.921.712,1.863,1.863,0,0,1-.488.06,1.652,1.652,0,0,1-.534-.089,1.466,1.466,0,0,1-.474-.261,1.28,1.28,0,0,1-.468-1.028,1.23,1.23,0,0,1,.511-1.065,1.842,1.842,0,0,1,1.085-.3,1.683,1.683,0,0,1,1.122.387c.009-.086.011-.192.011-.319a1.077,1.077,0,0,0-.075-.385.785.785,0,0,0-.215-.319,1.158,1.158,0,0,0-.8-.253,1.958,1.958,0,0,0-.933.253.352.352,0,0,1-.158.049c-.069,0-.132-.066-.2-.2a.749.749,0,0,1-.1-.293c0-.109.083-.218.25-.319a2.392,2.392,0,0,1,1.269-.293,1.8,1.8,0,0,1,1.2.4,1.66,1.66,0,0,1,.56,1.34,4.793,4.793,0,0,1-.123.967A5.429,5.429,0,0,1,198.024,643.469Zm-2.523-1.6a.854.854,0,0,0-.221.227.522.522,0,0,0-.066.264.621.621,0,0,0,.055.27.548.548,0,0,0,.152.2.727.727,0,0,0,.465.161,1.27,1.27,0,0,0,.425-.06,1.052,1.052,0,0,0,.287-.155.56.56,0,0,0,.258-.428.549.549,0,0,0-.313-.445,1.2,1.2,0,0,0-.614-.149A.721.721,0,0,0,195.5,641.873Z" transform="translate(-182.207 -637.447)" fill="#00a19a"/>
        <path id="Trazado_4193" data-name="Trazado 4193" d="M216.009,641.091a.271.271,0,0,1-.31-.3.665.665,0,0,0-.215-.534.715.715,0,0,0-.494-.161.941.941,0,0,0-.514.129,1.057,1.057,0,0,0-.33.327,1.713,1.713,0,0,0-.25.941,1.363,1.363,0,0,0,.626,1.346,1.076,1.076,0,0,0,.5.118,1.426,1.426,0,0,0,.451-.06,2.172,2.172,0,0,0,.316-.132c.092-.049.175-.092.244-.132a.364.364,0,0,1,.172-.06.246.246,0,0,1,.215.123l.083.138a.388.388,0,0,1,.057.189.332.332,0,0,1-.075.192.839.839,0,0,1-.2.184,1.685,1.685,0,0,1-.287.149,3.087,3.087,0,0,1-.336.118,2.255,2.255,0,0,1-1.512-.069,1.848,1.848,0,0,1-1.056-1.159,2.844,2.844,0,0,1-.143-.927,2.634,2.634,0,0,1,.152-.918,1.993,1.993,0,0,1,.425-.689,1.939,1.939,0,0,1,1.464-.58,1.664,1.664,0,0,1,1.223.419,1.216,1.216,0,0,1,.359.9.408.408,0,0,1-.468.456h-.095Z" transform="translate(-195.512 -637.44)" fill="#00a19a"/>
        <path id="Trazado_4194" data-name="Trazado 4194" d="M231.25,641.531a2.394,2.394,0,0,1,.164-.9,2.215,2.215,0,0,1,3.542-.7,2.26,2.26,0,0,1,.542,1.6,2.195,2.195,0,0,1-.614,1.61,2.187,2.187,0,0,1-3.054-.014A2.228,2.228,0,0,1,231.25,641.531Zm1.208-.958a1.4,1.4,0,0,0-.2.474,2.406,2.406,0,0,0-.063.537,1.852,1.852,0,0,0,.075.522,1.375,1.375,0,0,0,.221.445,1.063,1.063,0,0,0,.9.428,1.036,1.036,0,0,0,.9-.422,1.662,1.662,0,0,0,.27-1,1.39,1.39,0,0,0-.626-1.314,1.084,1.084,0,0,0-.554-.132,1.106,1.106,0,0,0-.548.126A1.146,1.146,0,0,0,232.458,640.573Z" transform="translate(-208.56 -637.447)" fill="#00a19a"/>
        <path id="Trazado_4195" data-name="Trazado 4195" d="M255.006,639.323a1.121,1.121,0,0,1,1.2.847,1.731,1.731,0,0,1,1-.789,1.975,1.975,0,0,1,.531-.06,1.309,1.309,0,0,1,.62.158,1.075,1.075,0,0,1,.445.413,1.48,1.48,0,0,1,.184.56,5.2,5.2,0,0,1,.04.654v2.31a.252.252,0,0,1-.069.178.261.261,0,0,1-.2.072h-.367a.269.269,0,0,1-.21-.072.26.26,0,0,1-.069-.178v-2.345a1.258,1.258,0,0,0-.167-.723.6.6,0,0,0-.528-.238.918.918,0,0,0-.717.362,1.358,1.358,0,0,0-.33.933v2.009a.252.252,0,0,1-.069.178.258.258,0,0,1-.2.072h-.37a.269.269,0,0,1-.21-.072.247.247,0,0,1-.069-.178v-2.345a1.258,1.258,0,0,0-.166-.723.6.6,0,0,0-.528-.238.938.938,0,0,0-.723.362,1.37,1.37,0,0,0-.327.933v2.009a.26.26,0,0,1-.063.178.247.247,0,0,1-.2.072h-.387a.261.261,0,0,1-.2-.072.247.247,0,0,1-.069-.178V641.1a7.81,7.81,0,0,0-.049-1.056c-.032-.2-.049-.319-.049-.359,0-.181.086-.27.258-.27h.207a.288.288,0,0,1,.287.158,2.844,2.844,0,0,1,.172.594,1.541,1.541,0,0,1,1.392-.844Z" transform="translate(-223.846 -637.44)" fill="#00a19a"/>
        <path id="Trazado_4196" data-name="Trazado 4196" d="M282.913,643.025c.026.25.037.565.037.941v1.553c0,.187-.075.278-.221.278h-.468c-.158,0-.238-.1-.238-.293V641.34a7.6,7.6,0,0,0-.112-1.544.558.558,0,0,1-.012-.135.225.225,0,0,1,.069-.158.234.234,0,0,1,.178-.072h.23a.3.3,0,0,1,.293.181,1.91,1.91,0,0,1,.155.545,1.582,1.582,0,0,1,.717-.669,1.725,1.725,0,0,1,.735-.149,1.646,1.646,0,0,1,.735.161,1.519,1.519,0,0,1,.54.439,2.373,2.373,0,0,1,.425,1.484,2.753,2.753,0,0,1-.476,1.642,1.552,1.552,0,0,1-1.32.712A1.377,1.377,0,0,1,282.913,643.025Zm-.049-1.334a1.326,1.326,0,0,0,.362.933,1.038,1.038,0,0,0,.775.37.857.857,0,0,0,.809-.531,2.378,2.378,0,0,0,.21-1.065,1.511,1.511,0,0,0-.25-.881.822.822,0,0,0-.712-.39,1.093,1.093,0,0,0-.855.413,1.411,1.411,0,0,0-.342.944v.207Z" transform="translate(-244.673 -637.454)" fill="#00a19a"/>
        <path id="Trazado_4197" data-name="Trazado 4197" d="M305.344,643.469a.174.174,0,0,1-.2.2h-.365c-.1,0-.158-.02-.178-.057a.3.3,0,0,1-.034-.106c0-.032-.009-.069-.014-.115-.014-.123-.037-.255-.063-.4a1.431,1.431,0,0,1-.921.712,1.863,1.863,0,0,1-.488.06,1.652,1.652,0,0,1-.534-.089,1.466,1.466,0,0,1-.474-.261,1.28,1.28,0,0,1-.468-1.028,1.23,1.23,0,0,1,.511-1.065,1.842,1.842,0,0,1,1.085-.3,1.683,1.683,0,0,1,1.122.387c.009-.086.012-.192.012-.319a1.077,1.077,0,0,0-.075-.385.785.785,0,0,0-.215-.319,1.158,1.158,0,0,0-.8-.253,1.958,1.958,0,0,0-.933.253.352.352,0,0,1-.158.049c-.069,0-.132-.066-.2-.2a.749.749,0,0,1-.1-.293c0-.109.083-.218.25-.319a2.392,2.392,0,0,1,1.269-.293,1.8,1.8,0,0,1,1.2.4,1.66,1.66,0,0,1,.56,1.34,4.793,4.793,0,0,1-.123.967A5.207,5.207,0,0,1,305.344,643.469Zm-2.52-1.6a.855.855,0,0,0-.221.227.522.522,0,0,0-.066.264.621.621,0,0,0,.055.27.548.548,0,0,0,.152.2.727.727,0,0,0,.465.161,1.27,1.27,0,0,0,.425-.06,1.052,1.052,0,0,0,.287-.155.56.56,0,0,0,.258-.428.549.549,0,0,0-.313-.445,1.2,1.2,0,0,0-.614-.149A.721.721,0,0,0,302.824,641.873Z" transform="translate(-258.726 -637.447)" fill="#00a19a"/>
        <path id="Trazado_4198" data-name="Trazado 4198" d="M321.09,635.017c0-.181.086-.27.258-.27h.207a.288.288,0,0,1,.287.158,2.894,2.894,0,0,1,.181.594,1.555,1.555,0,0,1,1.007-.789,2.08,2.08,0,0,1,.525-.057,1.288,1.288,0,0,1,.583.135,1.074,1.074,0,0,1,.422.367,2.264,2.264,0,0,1,.287,1.254v2.336a.252.252,0,0,1-.069.178.261.261,0,0,1-.2.072h-.367a.269.269,0,0,1-.21-.072.259.259,0,0,1-.069-.178v-2.339c0-.643-.235-.964-.709-.964a1.046,1.046,0,0,0-.758.347,1.2,1.2,0,0,0-.365.867v2.092a.26.26,0,0,1-.063.178.248.248,0,0,1-.2.072h-.387a.261.261,0,0,1-.2-.072.247.247,0,0,1-.069-.178v-2.31a7.812,7.812,0,0,0-.049-1.056A3.659,3.659,0,0,1,321.09,635.017Zm1.079-1.056a.134.134,0,0,1-.092.046.261.261,0,0,1-.057,0,.156.156,0,0,1-.046-.014l-.1-.034-.166-.06a.159.159,0,0,1-.123-.161.656.656,0,0,1,.069-.27,1.26,1.26,0,0,1,.184-.29.808.808,0,0,1,.614-.33,1.021,1.021,0,0,1,.577.227l.227.158a.318.318,0,0,0,.178.072.215.215,0,0,0,.121-.029.466.466,0,0,0,.08-.069.435.435,0,0,0,.1-.181.74.74,0,0,1,.069-.175.152.152,0,0,1,.143-.078.449.449,0,0,1,.057.009l.109.026a.706.706,0,0,1,.307.109.265.265,0,0,1,.034.152.889.889,0,0,1-.066.281,1.192,1.192,0,0,1-.187.333.8.8,0,0,1-.649.35,1.087,1.087,0,0,1-.608-.221l-.218-.155a.342.342,0,0,0-.2-.072c-.135,0-.232.089-.29.264A.276.276,0,0,1,322.169,633.961Z" transform="translate(-272.616 -632.77)" fill="#00a19a"/>
        <path id="Trazado_4199" data-name="Trazado 4199" d="M344.274,643.469a.174.174,0,0,1-.2.2h-.365c-.1,0-.158-.02-.178-.057a.3.3,0,0,1-.034-.106c0-.032-.009-.069-.014-.115-.014-.123-.037-.255-.063-.4a1.431,1.431,0,0,1-.921.712,1.863,1.863,0,0,1-.488.06,1.652,1.652,0,0,1-.534-.089,1.466,1.466,0,0,1-.474-.261,1.28,1.28,0,0,1-.468-1.028,1.23,1.23,0,0,1,.511-1.065,1.842,1.842,0,0,1,1.085-.3,1.683,1.683,0,0,1,1.122.387c.009-.086.011-.192.011-.319a1.077,1.077,0,0,0-.075-.385.785.785,0,0,0-.215-.319,1.158,1.158,0,0,0-.8-.253,1.958,1.958,0,0,0-.933.253.352.352,0,0,1-.158.049c-.069,0-.132-.066-.2-.2a.749.749,0,0,1-.1-.293c0-.109.083-.218.25-.319a2.392,2.392,0,0,1,1.269-.293,1.8,1.8,0,0,1,1.2.4,1.66,1.66,0,0,1,.56,1.34,4.793,4.793,0,0,1-.123.967A5.431,5.431,0,0,1,344.274,643.469Zm-2.523-1.6a.853.853,0,0,0-.221.227.522.522,0,0,0-.066.264.621.621,0,0,0,.055.27.549.549,0,0,0,.152.2.727.727,0,0,0,.465.161,1.27,1.27,0,0,0,.425-.06,1.051,1.051,0,0,0,.287-.155.56.56,0,0,0,.258-.428.549.549,0,0,0-.313-.445,1.2,1.2,0,0,0-.614-.149A.721.721,0,0,0,341.751,641.873Z" transform="translate(-286.483 -637.447)" fill="#00a19a"/>
        <path id="Trazado_4200" data-name="Trazado 4200" d="M362.326,639.323a1.121,1.121,0,0,1,1.2.847,1.731,1.731,0,0,1,1-.789,1.975,1.975,0,0,1,.531-.06,1.309,1.309,0,0,1,.62.158,1.075,1.075,0,0,1,.445.413,1.48,1.48,0,0,1,.184.56,5.2,5.2,0,0,1,.04.654v2.31a.252.252,0,0,1-.069.178.261.261,0,0,1-.2.072H365.7a.269.269,0,0,1-.21-.072.259.259,0,0,1-.069-.178v-2.345a1.258,1.258,0,0,0-.166-.723.6.6,0,0,0-.528-.238.918.918,0,0,0-.717.362,1.358,1.358,0,0,0-.33.933v2.009a.252.252,0,0,1-.069.178.258.258,0,0,1-.2.072h-.37a.269.269,0,0,1-.21-.072.26.26,0,0,1-.069-.178v-2.345a1.258,1.258,0,0,0-.166-.723.6.6,0,0,0-.528-.238.938.938,0,0,0-.723.362,1.371,1.371,0,0,0-.327.933v2.009a.26.26,0,0,1-.063.178.247.247,0,0,1-.2.072h-.387a.261.261,0,0,1-.2-.072.247.247,0,0,1-.069-.178V641.1a7.807,7.807,0,0,0-.049-1.056c-.032-.2-.049-.319-.049-.359,0-.181.086-.27.258-.27h.207a.288.288,0,0,1,.287.158,2.845,2.845,0,0,1,.172.594,1.6,1.6,0,0,1,.947-.783A1.63,1.63,0,0,1,362.326,639.323Z" transform="translate(-300.366 -637.44)" fill="#00a19a"/>
        <path id="Trazado_4201" data-name="Trazado 4201" d="M388.64,641.531a2.394,2.394,0,0,1,.164-.9,2.215,2.215,0,0,1,3.542-.7,2.26,2.26,0,0,1,.542,1.6,2.195,2.195,0,0,1-.614,1.61,2.187,2.187,0,0,1-3.054-.014A2.228,2.228,0,0,1,388.64,641.531Zm1.208-.958a1.4,1.4,0,0,0-.2.474,2.408,2.408,0,0,0-.063.537,1.854,1.854,0,0,0,.075.522,1.375,1.375,0,0,0,.221.445,1.063,1.063,0,0,0,.9.428,1.036,1.036,0,0,0,.9-.422,1.662,1.662,0,0,0,.27-1,1.39,1.39,0,0,0-.626-1.314,1.084,1.084,0,0,0-.554-.132,1.113,1.113,0,0,0-.548.126A1.176,1.176,0,0,0,389.848,640.573Z" transform="translate(-320.779 -637.447)" fill="#00a19a"/>
        <path id="Trazado_4202" data-name="Trazado 4202" d="M410.615,643c.482,0,.723-.161.723-.485,0-.178-.138-.327-.41-.451a4.03,4.03,0,0,0-.379-.146,3.069,3.069,0,0,1-.746-.365,1.347,1.347,0,0,1-.284-.255,1.158,1.158,0,0,1-.25-.763,1.043,1.043,0,0,1,.471-.9,1.725,1.725,0,0,1,1.027-.3,2.174,2.174,0,0,1,1.1.255.25.25,0,0,1,.149.207.889.889,0,0,1-.089.365q-.09.2-.207.2a.493.493,0,0,1-.215-.049c-.063-.031-.121-.06-.172-.083a1,1,0,0,0-.164-.057,1.215,1.215,0,0,0-.606-.034.608.608,0,0,0-.178.072.333.333,0,0,0-.192.287.38.38,0,0,0,.077.258.817.817,0,0,0,.212.167,2.326,2.326,0,0,0,.324.149l.408.169a2.338,2.338,0,0,1,.666.388,1.108,1.108,0,0,1,.339.8,1.236,1.236,0,0,1-.39.941,1.734,1.734,0,0,1-1.231.4,1.976,1.976,0,0,1-1.217-.313c-.132-.1-.2-.189-.2-.27a.514.514,0,0,1,.043-.215c.029-.063.066-.138.112-.227a.21.21,0,0,1,.189-.129.407.407,0,0,1,.253.106,1.317,1.317,0,0,0,.367.192A1.488,1.488,0,0,0,410.615,643Z" transform="translate(-335.424 -637.454)" fill="#00a19a"/>
        <path id="Trazado_4203" data-name="Trazado 4203" d="M435.583,641.731l0,.072a1.085,1.085,0,0,0,.327.827,1.279,1.279,0,0,0,.93.33,1.71,1.71,0,0,0,.993-.319.279.279,0,0,1,.155-.06.223.223,0,0,1,.21.141l.1.209a.386.386,0,0,1,.034.161.278.278,0,0,1-.078.178.786.786,0,0,1-.2.167,1.4,1.4,0,0,1-.287.132,3.22,3.22,0,0,1-.336.095,3.469,3.469,0,0,1-.723.075,2.159,2.159,0,0,1-.758-.144,1.839,1.839,0,0,1-.66-.419,2.1,2.1,0,0,1-.6-1.576c0-1.162.408-1.883,1.225-2.167a2.585,2.585,0,0,1,1.478-.046,1.426,1.426,0,0,1,.491.255,1.22,1.22,0,0,1,.436,1,1.071,1.071,0,0,1-.511.959,2.153,2.153,0,0,1-1.182.29A3.6,3.6,0,0,1,435.583,641.731Zm1.851-1.1c0-.359-.241-.537-.723-.537a1.006,1.006,0,0,0-.964.505,1.165,1.165,0,0,0-.129.436,1.823,1.823,0,0,0,.824.161C437.1,641.2,437.434,641.011,437.434,640.635Z" transform="translate(-353.612 -637.426)" fill="#00a19a"/>
        <path id="Trazado_4204" data-name="Trazado 4204" d="M453.95,639.694c0-.181.086-.27.258-.27h.207a.288.288,0,0,1,.287.158,2.9,2.9,0,0,1,.181.594,1.555,1.555,0,0,1,1.007-.789,2.08,2.08,0,0,1,.525-.057,1.288,1.288,0,0,1,.583.135,1.074,1.074,0,0,1,.422.367,2.263,2.263,0,0,1,.287,1.254v2.336a.252.252,0,0,1-.069.178.261.261,0,0,1-.2.072h-.367a.269.269,0,0,1-.21-.072.26.26,0,0,1-.069-.178v-2.339c0-.643-.235-.964-.709-.964a1.046,1.046,0,0,0-.758.347,1.2,1.2,0,0,0-.365.867v2.092a.26.26,0,0,1-.063.178.247.247,0,0,1-.2.072h-.387a.261.261,0,0,1-.2-.072.247.247,0,0,1-.069-.178v-2.31a7.8,7.8,0,0,0-.049-1.056A3.666,3.666,0,0,1,453.95,639.694Z" transform="translate(-367.345 -637.447)" fill="#00a19a"/>
        <path id="Trazado_4205" data-name="Trazado 4205" d="M485.081,637.5c0,.141-.08.21-.238.21h-1.062v2.362a.338.338,0,0,0,.379.385,1.3,1.3,0,0,0,.629-.241.3.3,0,0,1,.164-.049c.06,0,.106.04.141.123l.086.2a.511.511,0,0,1,.049.192.284.284,0,0,1-.118.184,1.224,1.224,0,0,1-.3.187,1.858,1.858,0,0,1-.758.189,1.679,1.679,0,0,1-.537-.069.845.845,0,0,1-.336-.209,1.13,1.13,0,0,1-.3-.847v-2.4h-.316c-.158,0-.238-.072-.238-.215v-.215a.183.183,0,0,1,.046-.135.334.334,0,0,1,.178-.075l.376-.109.143-.884c.029-.167.095-.25.2-.25h.313a.178.178,0,0,1,.144.069.276.276,0,0,1,.057.178v.849h1.062c.158,0,.238.069.238.207Z" transform="translate(-387.573 -634.952)" fill="#00a19a"/>
        <path id="Trazado_4206" data-name="Trazado 4206" d="M501.626,643.635c0,.169-.078.255-.232.255h-.169a.288.288,0,0,1-.3-.181,5.272,5.272,0,0,1-.169-.577,1.26,1.26,0,0,1-.537.623,1.794,1.794,0,0,1-.941.227,1.28,1.28,0,0,1-1.088-.462,2.232,2.232,0,0,1-.35-1.36v-2.27a.262.262,0,0,1,.066-.178.236.236,0,0,1,.187-.072h.413a.221.221,0,0,1,.25.25v2.227c0,.6.141.947.419,1.039a.986.986,0,0,0,.321.046.965.965,0,0,0,.385-.086,1.327,1.327,0,0,0,.356-.23,1,1,0,0,0,.353-.749V639.89a.26.26,0,0,1,.063-.178.255.255,0,0,1,.2-.072h.4a.233.233,0,0,1,.192.072.267.267,0,0,1,.06.178v2.351a5.914,5.914,0,0,0,.112,1.28A1.115,1.115,0,0,1,501.626,643.635Z" transform="translate(-398.638 -637.668)" fill="#00a19a"/>
        <path id="Trazado_4207" data-name="Trazado 4207" d="M528.513,643.025c.026.25.037.565.037.941v1.553c0,.187-.075.278-.221.278h-.468c-.158,0-.238-.1-.238-.293V641.34a7.6,7.6,0,0,0-.112-1.544.555.555,0,0,1-.011-.135.225.225,0,0,1,.069-.158.234.234,0,0,1,.178-.072h.23a.3.3,0,0,1,.293.181,1.912,1.912,0,0,1,.155.545,1.581,1.581,0,0,1,.718-.669,1.724,1.724,0,0,1,.735-.149,1.637,1.637,0,0,1,.735.161,1.485,1.485,0,0,1,.537.439,2.373,2.373,0,0,1,.425,1.484,2.755,2.755,0,0,1-.479,1.642,1.552,1.552,0,0,1-1.32.712A1.375,1.375,0,0,1,528.513,643.025Zm-.049-1.334a1.326,1.326,0,0,0,.362.933,1.038,1.038,0,0,0,.775.37.857.857,0,0,0,.809-.531,2.377,2.377,0,0,0,.21-1.065,1.511,1.511,0,0,0-.25-.881.822.822,0,0,0-.712-.39,1.093,1.093,0,0,0-.855.413,1.411,1.411,0,0,0-.341.944v.207Z" transform="translate(-419.786 -637.454)" fill="#00a19a"/>
        <path id="Trazado_4208" data-name="Trazado 4208" d="M548,639.7c0-.181.08-.27.238-.27h.2a.3.3,0,0,1,.293.181,2.425,2.425,0,0,1,.181.726c0,.006,0,.009.006.009a.773.773,0,0,0,.026-.129,1.074,1.074,0,0,1,.109-.313,1.111,1.111,0,0,1,.221-.313.912.912,0,0,1,.654-.253.965.965,0,0,1,.6.143.18.18,0,0,1,.063.178l-.06.474c-.014.129-.08.192-.2.192a.771.771,0,0,1-.2-.034,1.566,1.566,0,0,0-.367-.06.485.485,0,0,0-.287.118,1.123,1.123,0,0,0-.258.3,1.489,1.489,0,0,0-.221.786v2a.273.273,0,0,1-.06.178.209.209,0,0,1-.172.072h-.436a.23.23,0,0,1-.184-.072.269.269,0,0,1-.063-.178v-2.592a5.537,5.537,0,0,0-.043-.875A1.79,1.79,0,0,1,548,639.7Z" transform="translate(-434.402 -637.454)" fill="#00a19a"/>
        <path id="Trazado_4209" data-name="Trazado 4209" d="M561.36,641.531a2.394,2.394,0,0,1,.164-.9,2.215,2.215,0,0,1,3.542-.7,2.26,2.26,0,0,1,.542,1.6,2.195,2.195,0,0,1-.614,1.61,2.187,2.187,0,0,1-3.054-.014A2.228,2.228,0,0,1,561.36,641.531Zm1.211-.958a1.4,1.4,0,0,0-.2.474,2.265,2.265,0,0,0-.063.537,1.854,1.854,0,0,0,.075.522,1.375,1.375,0,0,0,.221.445,1.063,1.063,0,0,0,.9.428,1.036,1.036,0,0,0,.9-.422,1.662,1.662,0,0,0,.27-1,1.39,1.39,0,0,0-.626-1.314,1.084,1.084,0,0,0-.554-.132,1.106,1.106,0,0,0-.548.126A1.118,1.118,0,0,0,562.571,640.573Z" transform="translate(-443.928 -637.447)" fill="#00a19a"/>
        <path id="Trazado_4210" data-name="Trazado 4210" d="M585,639.653a.212.212,0,0,1,.241.238,5.6,5.6,0,0,1-.287,1.214l-.232.718a13.115,13.115,0,0,1-2.043,3.892l-.075.095a.464.464,0,0,1-.353.221.684.684,0,0,1-.445-.267.244.244,0,0,1-.072-.172.5.5,0,0,1,.169-.333c.112-.118.218-.232.313-.35s.187-.235.27-.353a5.766,5.766,0,0,0,.422-.674q-.585-1.584-.712-1.9l-.41-1.019-.29-.657a1.86,1.86,0,0,1-.161-.456.181.181,0,0,1,.069-.141.291.291,0,0,1,.2-.057h.474a.281.281,0,0,1,.255.189c.046.092.106.247.184.459.158.462.273.8.347,1.027l.3,1c.031.1.052.181.069.241l.034.135q.013.047.026.112l.034.143c.011.052.026.075.04.075s.032-.014.052-.046a.756.756,0,0,0,.057-.118l.063-.158a16.849,16.849,0,0,0,.74-2.815.261.261,0,0,1,.281-.244H585Z" transform="translate(-458.167 -637.676)" fill="#00a19a"/>
        <path id="Trazado_4211" data-name="Trazado 4211" d="M601.1,641.731l0,.072a1.085,1.085,0,0,0,.327.827,1.284,1.284,0,0,0,.93.33,1.71,1.71,0,0,0,.993-.319.279.279,0,0,1,.155-.06.223.223,0,0,1,.209.141l.1.209a.386.386,0,0,1,.034.161.278.278,0,0,1-.078.178.784.784,0,0,1-.2.167,1.4,1.4,0,0,1-.287.132,3.227,3.227,0,0,1-.336.095,3.469,3.469,0,0,1-.723.075,2.171,2.171,0,0,1-.758-.144,1.839,1.839,0,0,1-.66-.419,2.1,2.1,0,0,1-.6-1.576c0-1.162.408-1.883,1.226-2.167a2.585,2.585,0,0,1,1.478-.046,1.426,1.426,0,0,1,.491.255,1.22,1.22,0,0,1,.436,1,1.071,1.071,0,0,1-.511.959,2.153,2.153,0,0,1-1.182.29A3.628,3.628,0,0,1,601.1,641.731Zm1.851-1.1c0-.359-.241-.537-.723-.537a1.006,1.006,0,0,0-.964.505,1.164,1.164,0,0,0-.129.436,1.823,1.823,0,0,0,.824.161C602.626,641.2,602.954,641.011,602.954,640.635Z" transform="translate(-471.628 -637.426)" fill="#00a19a"/>
        <path id="Trazado_4212" data-name="Trazado 4212" d="M621.727,641.091a.269.269,0,0,1-.307-.3.666.666,0,0,0-.215-.534.715.715,0,0,0-.494-.161.941.941,0,0,0-.514.129,1.057,1.057,0,0,0-.33.327,1.713,1.713,0,0,0-.25.941,1.363,1.363,0,0,0,.626,1.346,1.077,1.077,0,0,0,.5.118,1.414,1.414,0,0,0,.451-.06,2.17,2.17,0,0,0,.316-.132c.092-.049.175-.092.244-.132a.364.364,0,0,1,.172-.06.246.246,0,0,1,.215.123l.083.138a.389.389,0,0,1,.057.189.333.333,0,0,1-.075.192.9.9,0,0,1-.2.184,1.686,1.686,0,0,1-.287.149,3.324,3.324,0,0,1-.336.118,2.255,2.255,0,0,1-1.512-.069,1.848,1.848,0,0,1-1.056-1.159,2.844,2.844,0,0,1-.144-.927,2.634,2.634,0,0,1,.152-.918,1.993,1.993,0,0,1,.425-.689,1.939,1.939,0,0,1,1.464-.58,1.664,1.664,0,0,1,1.223.419,1.216,1.216,0,0,1,.359.9.408.408,0,0,1-.468.456h-.1Z" transform="translate(-484.79 -637.44)" fill="#00a19a"/>
        <path id="Trazado_4213" data-name="Trazado 4213" d="M638.951,637.5c0,.141-.08.21-.238.21h-1.062v2.362a.338.338,0,0,0,.379.385,1.3,1.3,0,0,0,.629-.241.3.3,0,0,1,.164-.049c.06,0,.106.04.141.123l.086.2a.511.511,0,0,1,.049.192.284.284,0,0,1-.118.184,1.223,1.223,0,0,1-.3.187,1.858,1.858,0,0,1-.758.189,1.678,1.678,0,0,1-.537-.069.844.844,0,0,1-.336-.209,1.13,1.13,0,0,1-.3-.847v-2.4h-.316c-.158,0-.238-.072-.238-.215v-.215a.183.183,0,0,1,.046-.135.345.345,0,0,1,.178-.075l.376-.109.144-.884c.029-.167.095-.25.2-.25h.313a.178.178,0,0,1,.143.069.276.276,0,0,1,.057.178v.849h1.062c.158,0,.238.069.238.207v.367Z" transform="translate(-497.282 -634.952)" fill="#00a19a"/>
        <path id="Trazado_4214" data-name="Trazado 4214" d="M650.8,641.531a2.392,2.392,0,0,1,.164-.9,2.215,2.215,0,0,1,3.542-.7,2.26,2.26,0,0,1,.542,1.6,2.195,2.195,0,0,1-.614,1.61,2.187,2.187,0,0,1-3.054-.014A2.24,2.24,0,0,1,650.8,641.531Zm1.211-.958a1.4,1.4,0,0,0-.2.474,2.265,2.265,0,0,0-.063.537,1.851,1.851,0,0,0,.075.522,1.375,1.375,0,0,0,.221.445,1.063,1.063,0,0,0,.9.428,1.036,1.036,0,0,0,.9-.422,1.662,1.662,0,0,0,.27-1,1.39,1.39,0,0,0-.626-1.314,1.084,1.084,0,0,0-.554-.132,1.106,1.106,0,0,0-.548.126A1.147,1.147,0,0,0,652.011,640.573Z" transform="translate(-507.699 -637.447)" fill="#00a19a"/>
      </g>
      <g id="Grupo_9407" data-name="Grupo 9407" transform="translate(3.091)">
        <g id="Grupo_9406" data-name="Grupo 9406" transform="translate(0 9.325)">
          <g id="Grupo_9405" data-name="Grupo 9405">
            <path id="Trazado_4215" data-name="Trazado 4215" d="M163.821,309.231a.86.86,0,0,1-.861-.861v-8.5a.86.86,0,0,1,.359-.7l16.709-12.011a.861.861,0,0,1,1.025.014l12,9.187.537.267v-32.2a.861.861,0,0,1,1.429-.646l23.425,20.515a.86.86,0,0,1,.293.649v6.7l16.514-12.975a.861.861,0,0,1,1.048-.014L253.776,291.7V248.321a.86.86,0,0,1,.861-.861h23.425a.86.86,0,0,1,.861.861v59.848a.861.861,0,0,1-1.722,0V249.182H255.5v44.235a.862.862,0,0,1-1.378.689L235.8,280.431l-17.389,13.664a.862.862,0,0,1-1.395-.677v-8.085l-21.7-19.008v31.7a.863.863,0,0,1-1.246.772l-1.857-.924a1.027,1.027,0,0,1-.141-.086l-11.56-8.851-15.831,11.38v8.056A.851.851,0,0,1,163.821,309.231Z" transform="translate(-162.96 -247.46)" fill="#00a19a"/>
          </g>
        </g>
        <path id="Trazado_4216" data-name="Trazado 4216" d="M521.231,226.017a.86.86,0,0,1-.861-.861v-9.325a.861.861,0,1,1,1.722,0v9.325A.862.862,0,0,1,521.231,226.017Z" transform="translate(-417.793 -214.97)" fill="#00a19a"/>
      </g>
      <path id="Trazado_4217" data-name="Trazado 4217" d="M554.935,450.246a.86.86,0,0,1-.608-.253l-3-3a.86.86,0,0,1,1.217-1.217l2.394,2.394,2.394-2.394a.86.86,0,0,1,1.217,1.217l-3,3A.865.865,0,0,1,554.935,450.246Z" transform="translate(-436.593 -379.354)" fill="#00a19a"/>
    </g>
    <g id="Grupo_9409" data-name="Grupo 9409" transform="translate(37.038 127.13)">
      <path id="Trazado_4218" data-name="Trazado 4218" d="M155.086,482.7a3.578,3.578,0,0,1-2.6-1.053,3.448,3.448,0,0,1-1.076-2.6,3.6,3.6,0,0,1,3.676-3.631,3.4,3.4,0,0,1,3.364,2.2,3.674,3.674,0,0,1-.783,4.035A3.565,3.565,0,0,1,155.086,482.7Zm2.551,23.574c0,1.062.353,1.593,1.065,1.593a2.025,2.025,0,0,0,.815-.2,3.917,3.917,0,0,1,1.2-.382c.316,0,.574.218.769.651l.7,1.57a1.686,1.686,0,0,1,.181.718q0,.964-1.673,1.794a6.879,6.879,0,0,1-3.134.806,7.454,7.454,0,0,1-2.477-.336,3.651,3.651,0,0,1-1.584-1.122q-1.313-1.614-1.312-5.246V488.639a1.57,1.57,0,0,1,.362-1.053,1.094,1.094,0,0,1,.861-.425h3.031a1.063,1.063,0,0,1,.861.425,1.633,1.633,0,0,1,.339,1.053v17.639Z" transform="translate(-151.41 -472.521)" fill="#e9e4dc"/>
      <path id="Trazado_4219" data-name="Trazado 4219" d="M229.3,490.03q0,2.781-2.465,2.781h-1.547a1.3,1.3,0,0,1-1.111-.528,2.655,2.655,0,0,1-.448-1.432,3.275,3.275,0,0,0-.327-1.309,4.007,4.007,0,0,0-1.57-1.662,7.9,7.9,0,0,0-3.989-.875,8.617,8.617,0,0,0-4.325,1.042,8.338,8.338,0,0,0-2.959,2.79,15.705,15.705,0,0,0-2.152,8.742q0,9.841,6.412,12.375a10.658,10.658,0,0,0,3.854.763,13.848,13.848,0,0,0,6.007-1.234l1.254-.583a2.737,2.737,0,0,1,1.076-.27,1.224,1.224,0,0,1,.763.224,3.507,3.507,0,0,1,.729,1.065,3.253,3.253,0,0,1,.436,1.458,2.079,2.079,0,0,1-.425,1.211,4.484,4.484,0,0,1-1.053,1.042,10.213,10.213,0,0,1-2.646,1.188,22.931,22.931,0,0,1-6.6.852,15.993,15.993,0,0,1-6.747-1.366,14.07,14.07,0,0,1-4.988-3.788q-4.146-4.934-4.147-12.935,0-7.891,4.193-12.6,4.283-4.843,11.793-4.842a14.343,14.343,0,0,1,7.307,1.84A6.62,6.62,0,0,1,229.3,490.03Z" transform="translate(-187.716 -477.313)" fill="#e9e4dc"/>
      <path id="Trazado_4220" data-name="Trazado 4220" d="M319.549,498.9q0,1.593,1.131,1.593a2.878,2.878,0,0,0,.927-.2,6.138,6.138,0,0,1,1.266-.382c.347,0,.62.218.815.651l.7,1.593a1.655,1.655,0,0,1,.135.629q0,.517-.861,1.254a6.864,6.864,0,0,1-4.5,1.412q-5.067,0-5.068-6.7V466.775a1.536,1.536,0,0,1,.362-1.03,1.094,1.094,0,0,1,.861-.425h3.031a1.063,1.063,0,0,1,.861.425,1.6,1.6,0,0,1,.339,1.03V498.9Z" transform="translate(-267.401 -465.32)" fill="#e9e4dc"/>
      <path id="Trazado_4221" data-name="Trazado 4221" d="M383.31,538.916a1.041,1.041,0,0,1-1.165,1.188h-2.176c-.583,0-.933-.115-1.053-.347a1.67,1.67,0,0,1-.2-.629c-.014-.187-.046-.416-.089-.683-.089-.732-.218-1.524-.382-2.376a8.536,8.536,0,0,1-5.493,4.236,11.155,11.155,0,0,1-2.913.359,10.026,10.026,0,0,1-3.183-.528,8.473,8.473,0,0,1-2.824-1.558,7.6,7.6,0,0,1-2.781-6.119,7.336,7.336,0,0,1,3.048-6.343,10.956,10.956,0,0,1,6.458-1.771,10.006,10.006,0,0,1,6.681,2.31c.046-.508.066-1.142.066-1.906a6.234,6.234,0,0,0-.448-2.287,5.047,5.047,0,0,0-1.277-1.906,6.947,6.947,0,0,0-4.753-1.5,11.811,11.811,0,0,0-5.559,1.5,2.033,2.033,0,0,1-.941.293q-.607,0-1.165-1.188a4.64,4.64,0,0,1-.606-1.748q0-.986,1.481-1.906a14.246,14.246,0,0,1,7.554-1.748,10.754,10.754,0,0,1,7.129,2.353,9.876,9.876,0,0,1,3.341,7.982,28.655,28.655,0,0,1-.74,5.76A30.541,30.541,0,0,1,383.31,538.916Zm-15.019-9.609a4.754,4.754,0,0,0-1.312,1.357,3.086,3.086,0,0,0-.393,1.581,3.836,3.836,0,0,0,.324,1.613,3.2,3.2,0,0,0,.907,1.177,4.379,4.379,0,0,0,2.77.964,7.512,7.512,0,0,0,2.523-.359,6.183,6.183,0,0,0,1.7-.918,3.341,3.341,0,0,0,1.547-2.554,3.255,3.255,0,0,0-1.86-2.646,7.167,7.167,0,0,0-3.654-.9A4.18,4.18,0,0,0,368.291,529.307Z" transform="translate(-300.883 -500.214)" fill="#e9e4dc"/>
      <path id="Trazado_4222" data-name="Trazado 4222" d="M475.481,517.834a49.965,49.965,0,0,1-2.018,9.864Q471,536.33,467.95,540a4.642,4.642,0,0,1-2.13,1.547,7.727,7.727,0,0,1-2.175.313,6.592,6.592,0,0,1-1.906-.247,3.3,3.3,0,0,1-1.346-.763,7.821,7.821,0,0,1-1.613-3.272q-1.481-4.929-3.071-9.64l-3.252-9.368a2.959,2.959,0,0,1-.178-.918c0-.9.583-1.346,1.748-1.346h2.041a2.111,2.111,0,0,1,1.266.347,2.676,2.676,0,0,1,.818,1.335q2.914,8.653,4.954,17.507c.164.763.494,1.142.987,1.142q.581,0,1.076-.941,2.419-4.507,3.9-13.472.4-2.355.594-3.61a4.967,4.967,0,0,1,.382-1.547,1.448,1.448,0,0,1,.436-.448,1.682,1.682,0,0,1,.987-.313h2.577Q475.48,516.31,475.481,517.834Z" transform="translate(-365.93 -501.676)" fill="#e9e4dc"/>
      <path id="Trazado_4223" data-name="Trazado 4223" d="M554.916,482.7a3.578,3.578,0,0,1-2.6-1.053,3.449,3.449,0,0,1-1.076-2.6,3.6,3.6,0,0,1,3.676-3.631,3.4,3.4,0,0,1,3.364,2.2,3.674,3.674,0,0,1-.784,4.035A3.556,3.556,0,0,1,554.916,482.7Zm2.6,23.574c0,1.062.353,1.593,1.065,1.593a2.024,2.024,0,0,0,.815-.2,3.917,3.917,0,0,1,1.2-.382c.316,0,.574.218.769.651l.7,1.57a1.686,1.686,0,0,1,.181.718q0,.964-1.673,1.794a6.879,6.879,0,0,1-3.134.806,7.454,7.454,0,0,1-2.477-.336,3.651,3.651,0,0,1-1.584-1.122q-1.313-1.614-1.312-5.246V488.639a1.571,1.571,0,0,1,.362-1.053,1.094,1.094,0,0,1,.861-.425h3.031a1.063,1.063,0,0,1,.861.425,1.633,1.633,0,0,1,.339,1.053v17.639Z" transform="translate(-436.489 -472.521)" fill="#e9e4dc"/>
      <path id="Trazado_4224" data-name="Trazado 4224" d="M611.094,535.725q4.3,0,4.3-2.893,0-1.593-2.442-2.689a22.678,22.678,0,0,0-2.253-.875,17.587,17.587,0,0,1-2.342-.964,17.84,17.84,0,0,1-2.1-1.223,8.264,8.264,0,0,1-1.693-1.512,6.912,6.912,0,0,1-1.481-4.552,6.2,6.2,0,0,1,2.8-5.335,10.29,10.29,0,0,1,6.119-1.771,12.81,12.81,0,0,1,6.524,1.524,1.5,1.5,0,0,1,.9,1.234,5.328,5.328,0,0,1-.528,2.164c-.35.783-.763,1.177-1.234,1.177a2.761,2.761,0,0,1-1.277-.293c-.382-.2-.726-.362-1.03-.505a5.864,5.864,0,0,0-.976-.347,7.256,7.256,0,0,0-2.075-.336,7.107,7.107,0,0,0-1.535.135,3.494,3.494,0,0,0-1.053.425,1.993,1.993,0,0,0-1.142,1.7,2.315,2.315,0,0,0,.459,1.547,4.566,4.566,0,0,0,1.266.987,16.809,16.809,0,0,0,1.929.9l2.422,1.007a13.665,13.665,0,0,1,3.966,2.31,6.623,6.623,0,0,1,2.018,4.776,7.37,7.37,0,0,1-2.33,5.605q-2.579,2.4-7.33,2.4-4.822,0-7.241-1.86c-.792-.6-1.188-1.136-1.188-1.613a3.093,3.093,0,0,1,.258-1.289q.258-.573.672-1.346a1.252,1.252,0,0,1,1.122-.775,2.446,2.446,0,0,1,1.5.64,7.722,7.722,0,0,0,2.187,1.142A8.117,8.117,0,0,0,611.094,535.725Z" transform="translate(-473.073 -499.965)" fill="#e9e4dc"/>
    </g>
  </g>
</svg>
