<svg xmlns="http://www.w3.org/2000/svg" xmlns:xlink="http://www.w3.org/1999/xlink" width="70" height="132" viewBox="0 0 70 132">
  <defs>
    <clipPath id="clip-Mesa_de_trabajo_2">
      <rect width="70" height="132"/>
    </clipPath>
  </defs>
  <g id="Mesa_de_trabajo_2" data-name="Mesa de trabajo – 2" clip-path="url(#clip-Mesa_de_trabajo_2)">
    <rect width="70" height="132" fill="#fff"/>
    <g id="Grupo_12108" data-name="Grupo 12108" transform="translate(-13611.396 -2341.78)">
      <g id="Group" transform="translate(13611.229 2373.646) rotate(-7)">
        <path id="base" d="M6.71,0H39.494A6.71,6.71,0,0,1,46.2,6.71V88.275a6.71,6.71,0,0,1-6.71,6.71H6.71A6.71,6.71,0,0,1,0,88.275V6.71A6.71,6.71,0,0,1,6.71,0Z" fill="#f2f2f2"/>
        <path id="Screen" d="M37.547,90.81H4.473A4.473,4.473,0,0,1,0,86.336V4.473A4.473,4.473,0,0,1,4.473,0H9.756V.746a2.538,2.538,0,0,0,2.535,2.535H29.856A2.538,2.538,0,0,0,32.391.746V0h5.156A4.473,4.473,0,0,1,42.02,4.473V86.336a4.473,4.473,0,0,1-4.473,4.473Z" transform="translate(2.025 2.025)" fill="#dde3e9"/>
      </g>
      <g id="Grupo_12103" data-name="Grupo 12103" transform="translate(13594 1608)">
        <g id="Grupo_9300" data-name="Grupo 9300" transform="translate(-323.581 689.156)">
          <g id="Grupo_9293" data-name="Grupo 9293" transform="matrix(0.966, -0.259, 0.259, 0.966, 388.327, 61.402)">
            <path id="Trazado_4172" data-name="Trazado 4172" d="M411.708,80.581h-1.373a1.167,1.167,0,0,1-1.2,1.174,1.111,1.111,0,0,1-1.076-.709,1.231,1.231,0,0,1,.1-1.112,1.49,1.49,0,0,1,1.669-.57v-3.1h-1.358v1.814a2.651,2.651,0,0,0-1.9,2.591,2.468,2.468,0,0,0,2.571,2.474A2.356,2.356,0,0,0,411.708,80.581Z" transform="translate(-406.565 -74.342)" fill="#00a19a"/>
            <rect id="Rectángulo_6272" data-name="Rectángulo 6272" width="1.378" height="1.287" transform="translate(3.266 1.287) rotate(180)" fill="#00a19a"/>
          </g>
          <g id="Grupo_9299" data-name="Grupo 9299" transform="translate(384.752 54.081)">
            <g id="Grupo_9298" data-name="Grupo 9298" transform="translate(0 0)">
              <g id="Grupo_9297" data-name="Grupo 9297">
                <g id="Grupo_9296" data-name="Grupo 9296">
                  <g id="Grupo_9295" data-name="Grupo 9295">
                    <g id="Grupo_9294" data-name="Grupo 9294">
                      <path id="Trazado_4173" data-name="Trazado 4173" d="M404.94,64.21a.988.988,0,0,0,0-.174c0-.126-.008-.3-.014-.511-.005-.112-.005-.238-.017-.376s-.041-.288-.063-.451l-.076-.526-.146-.587a9.511,9.511,0,0,0-1.241-2.847,10.044,10.044,0,0,0-7.551-4.614,10.369,10.369,0,0,0-1.377-.028c-.232.016-.469.012-.7.046l-.709.107a10.1,10.1,0,0,0-2.8.957,10.782,10.782,0,0,0-2.517,1.83,10.571,10.571,0,0,0-1.894,2.636,9.575,9.575,0,0,0-.986,3.213,6.379,6.379,0,0,0-.073.857,7.717,7.717,0,0,0-.016.866,10.266,10.266,0,0,0,.219,1.735,10.141,10.141,0,0,0,1.454,3.454l-.011-.1-1.412,3.519-.084.208.217-.059,3.762-1.035-.093-.018a10.1,10.1,0,0,0,4.3,1.878,9.147,9.147,0,0,0,2.2.137,7.073,7.073,0,0,0,1.058-.1l.515-.08c.169-.032.333-.083.5-.123a10.064,10.064,0,0,0,5.723-3.926,9.62,9.62,0,0,0,1.232-2.336l.188-.526.127-.5.113-.457c.028-.147.043-.288.064-.421.034-.266.08-.5.09-.7s.012-.374.017-.517.005-.235.007-.316a.489.489,0,0,0,0-.107.494.494,0,0,0-.015.107c-.006.08-.015.184-.025.314s-.021.314-.035.514-.067.435-.106.7a10.007,10.007,0,0,1-7.422,8c-.162.039-.323.089-.49.119l-.506.076a6.957,6.957,0,0,1-1.039.093,8.966,8.966,0,0,1-2.159-.143,9.913,9.913,0,0,1-4.205-1.852l-.042-.032-.051.014-3.764,1.027.133.149,1.416-3.517.022-.055-.033-.05A9.933,9.933,0,0,1,385.2,66.3a10.087,10.087,0,0,1-.215-1.7,7.537,7.537,0,0,1,.015-.847,6.162,6.162,0,0,1,.071-.838,9.374,9.374,0,0,1,.961-3.142,10.377,10.377,0,0,1,1.848-2.582,10.6,10.6,0,0,1,2.46-1.8,9.922,9.922,0,0,1,2.741-.946l.695-.107c.23-.034.462-.03.69-.047a9.918,9.918,0,0,1,8.811,4.516,9.571,9.571,0,0,1,1.263,2.8l.154.58.086.52.073.446c.015.137.019.262.028.374.016.215.028.383.037.508A.949.949,0,0,0,404.94,64.21Z" transform="translate(-384.752 -54.081)" fill="#1a2341"/>
                    </g>
                  </g>
                </g>
              </g>
            </g>
          </g>
          <g id="Grupo_9305" data-name="Grupo 9305" transform="matrix(-0.966, 0.259, -0.259, -0.966, 401.369, 67.021)">
            <path id="Trazado_4172-2" data-name="Trazado 4172" d="M411.708,80.581h-1.373a1.167,1.167,0,0,1-1.2,1.174,1.111,1.111,0,0,1-1.076-.709,1.231,1.231,0,0,1,.1-1.112,1.49,1.49,0,0,1,1.669-.57v-3.1h-1.358v1.814a2.651,2.651,0,0,0-1.9,2.591,2.468,2.468,0,0,0,2.571,2.474A2.356,2.356,0,0,0,411.708,80.581Z" transform="translate(-406.565 -74.342)" fill="#00a19a"/>
            <rect id="Rectángulo_6272-2" data-name="Rectángulo 6272" width="1.378" height="1.287" transform="translate(3.266 1.287) rotate(180)" fill="#00a19a"/>
          </g>
        </g>
        <g id="Grupo_9304" data-name="Grupo 9304" transform="translate(-56.563 712.316)">
          <g id="Grupo_9301" data-name="Grupo 9301" transform="translate(13.446 25.245)">
            <path id="Trazado_4174" data-name="Trazado 4174" d="M77.228,67.6l-3.4-1.062a3.031,3.031,0,0,1-3.879,1.983,2.885,2.885,0,0,1-2.12-2.591,3.2,3.2,0,0,1,1.1-2.682c.875-.772,2.41-1.243,4.579-.122l2.4-7.677L72.535,54.4l-1.4,4.5a6.887,6.887,0,0,0-6.726,4.951c-1.553,4.979,2.551,7.528,4.462,8.124C70.329,72.428,75.418,73.629,77.228,67.6Z" transform="translate(0 -8.931)" fill="#f5f5f5"/>
            <rect id="Rectángulo_6273" data-name="Rectángulo 6273" width="3.579" height="3.343" transform="matrix(-0.955, -0.298, 0.298, -0.955, 76.404, 44.941)" fill="#f5f5f5"/>
          </g>
          <g id="Grupo_9302" data-name="Grupo 9302" transform="translate(72.554 -110.246) rotate(45)">
            <path id="Trazado_4175" data-name="Trazado 4175" d="M128.491,61.417l1.444-.38a1.269,1.269,0,0,1,.934-1.566,1.208,1.208,0,0,1,1.328.447,1.338,1.338,0,0,1,.205,1.2,1.619,1.619,0,0,1-1.6,1.062l.858,3.255,1.427-.377-.5-1.906a2.883,2.883,0,0,0,1.284-3.252,2.683,2.683,0,0,0-3.389-1.888A2.561,2.561,0,0,0,128.491,61.417Z" transform="translate(0 0)" fill="#ebebeb"/>
            <rect id="Rectángulo_6274" data-name="Rectángulo 6274" width="1.498" height="1.399" transform="matrix(0.967, -0.255, 0.255, 0.967, 131.837, 66.102)" fill="#ebebeb"/>
          </g>
          <g id="Grupo_9303" data-name="Grupo 9303" transform="matrix(0.848, 0.53, -0.53, 0.848, 190.274, -66.161)">
            <path id="Trazado_4176" data-name="Trazado 4176" d="M47.507,201.375l4.1-1.581a3.737,3.737,0,0,1,2.229-4.887,3.558,3.558,0,0,1,4.032.881,3.941,3.941,0,0,1,.988,3.436c-.254,1.416-1.378,3.046-4.33,3.624l3.564,9.253,4.058-1.563-2.088-5.42a8.491,8.491,0,0,0,2.708-9.935c-2.312-6-8.23-5.321-10.533-4.433C50.477,191.428,44.641,194.166,47.507,201.375Z" transform="translate(0)" fill="#f5f5f5"/>
            <rect id="Rectángulo_6275" data-name="Rectángulo 6275" width="4.413" height="4.121" transform="matrix(0.933, -0.359, 0.359, 0.933, 58.817, 214.011)" fill="#f5f5f5"/>
          </g>
        </g>
        <g id="Grupo_9291" data-name="Grupo 9291" transform="translate(-3006.699 -6145.673)">
          <g id="A_Human_Standing" data-name="A Human/Standing" transform="translate(3032.527 6899.374)">
            <g id="Head_Front" data-name="Head/Front" transform="translate(19.982)">
              <g id="Head" transform="translate(0.001 0)">
                <path id="Head_skin_" data-name="Head [skin]" d="M0,18.564,2.158,8.771A6.785,6.785,0,0,1,.276,3.821c.392-5.442,8.173-4.245,9.686-1.5s1.334,9.714-.622,10.2c-.78.2-2.442-.284-4.133-1.276l1.062,7.313Z" transform="translate(0 0)" fill="#f2ceac"/>
              </g>
            </g>
            <g id="Bottom_Skinny_Jeans_1" data-name="Bottom/Skinny Jeans 1" transform="translate(7.326 39.659)">
              <path id="_skin_Leg" data-name="[skin] Leg" d="M0,0,9.591,31.356l4.646,26.666H17.88L12.971,0Z" transform="translate(10.685 0)" fill="#b28b67"/>
              <path id="Shadow" d="M0,0,9.591,31.356l4.646,26.666H17.88L12.971,0Z" transform="translate(10.685 0)" fill="#d8b391"/>
              <path id="_skin_Leg-2" data-name="[skin] Leg" d="M7.13,0c.651,17.216-.115,26.1-.261,27.661S4.727,39.367,0,58.547l3.882-1.333C11.352,39.623,13.9,30.48,14.754,28.17S17.886,16.47,21.58,0Z" transform="translate(0.123)" fill="#f2ceac"/>
              <g id="Left_shoe_" data-name="Left [shoe]" transform="translate(0 50.628)">
                <path id="shoe" d="M1.14,1.53a.51.51,0,0,0-.654.344L0,3.588A16.374,16.374,0,0,0,.23,5.6H14.605s.56-1.852-.647-2-2.006-.267-2.006-.267L5.271.354A.255.255,0,0,0,4.931.49L4.5,1.532a5.777,5.777,0,0,1-1.816.521Z" transform="translate(0.255 4.595)" fill="#e4e4e4"/>
              </g>
              <g id="Right_shoe_" data-name="Right [shoe]" transform="translate(23.627 50.628)">
                <path id="shoe-2" data-name="shoe" d="M1.14,1.53a.51.51,0,0,0-.654.344L0,3.588A16.374,16.374,0,0,0,.23,5.6H14.605s.56-1.852-.647-2-2.006-.267-2.006-.267L5.271.354A.255.255,0,0,0,4.931.49L4.5,1.532a5.777,5.777,0,0,1-1.816.521Z" transform="translate(0.255 4.595)" fill="#e4e4e4"/>
              </g>
            </g>
            <g id="Body_Long_Sleeve_1" data-name="Body/Long Sleeve 1" transform="translate(0 14.293)">
              <path id="Arms_skin_" data-name="Arms [skin]" d="M.313,22.906c-.284-.175-.6-.836.157-1.352,1.875-1.286,4.578-3.536,4.943-4.277C6.159,15.762,8.7.993,8.7.993l5.326.021S9.1,16.939,8.7,17.913c-.59,1.462.658,3.688,1.192,4.884-.841.376-1.232-.1-1.66-.585a1.513,1.513,0,0,0-2.086-.5C4.7,22.388,3.5,23.457,2.077,23.457A3.311,3.311,0,0,1,.313,22.906ZM45.86,8.576,38.352,4.149,40.75,0l7.22,7.044a21.883,21.883,0,0,1,5.164,2.968c.3.364.63,1.061-.789.749s-2.927-.576-3.194-.115.519,1.169.026,1.774a.187.187,0,0,1-.151.072Q48.346,12.492,45.86,8.576Z" transform="translate(0 21.923)" fill="#f2ceac"/>
              <path id="Coat_Back" data-name="Coat Back" d="M0,.569,2.163,0Q9.072,13.668,24.213,24.008l-6.361,9.27C7.473,23.113.676,12.284,0,.569Z" transform="matrix(0.996, 0.087, -0.087, 0.996, 23.889, 0)" fill="#05cbc2"/>
            </g>
            <path id="Pant" d="M0,0Q3.276,14.934,11.332,47.677h5.8c.428-22.4-1.393-37.151-4.548-47.677Z" transform="translate(18.921 41.855)" fill="#1a2341"/>
            <path id="Pant-2" data-name="Pant" d="M5.519,0C6.093,15.031,4.606,29.839,0,47.911H6.186A203.042,203.042,0,0,0,21.036,0Z" transform="translate(8.403 42.855)" fill="#263258"/>
            <path id="Shirt" d="M0,29.354H19.625S12.805,12.6,12.805.891L6.885,0C2.233,7.56.919,16.867,0,29.354Z" transform="translate(14.231 13.5)" fill="#f4f4f4"/>
            <path id="Clothes_Body" data-name="Clothes Body" d="M0,34.308H17.586S15.162,11.65,14.935,4.174L13.5.086S12.086.024,11.392,0h-.386C6.836,7.483.823,21.947,0,34.308Z" transform="translate(9.988 13.5)" fill="#00a19a"/>
            <path id="Clothes_Front" data-name="Clothes Front" d="M15.676,0S2.146,13.252,0,37.467H9.566A67.5,67.5,0,0,1,17.332,1.472Z" transform="translate(5.311 13.5)" fill="#2f3676"/>
            <path id="Shade" d="M2.931,0S3,15.072,5.862,19.88H0Z" transform="translate(12.447 28.028)" fill="#01817c"/>
            <path id="Clothes_Front-2" data-name="Clothes Front" d="M15.676,0S2.146,13.252,0,37.467H9.566A67.5,67.5,0,0,1,17.332,1.472Z" transform="translate(5.311 13.5)" fill="#00a19a"/>
            <path id="Light" d="M0,2.949,6.344,0V2.949Z" transform="translate(17.573 37.059)" fill="rgba(255,255,255,0.2)"/>
          </g>
          <g id="Left_shoe_2" data-name="Left [shoe]" transform="translate(3039.852 6989.661)">
            <path id="Shoe-3" data-name="Shoe" d="M0,4.588.239.728A.255.255,0,0,1,.471.49L5.818,0l9.17,3.4a.51.51,0,0,1,.313.617l-.377,1.331H.506Z" transform="translate(0 4.843)" fill="#191847"/>
          </g>
          <g id="Right_shoe_2" data-name="Right [shoe]" transform="translate(3063.478 6989.661)">
            <path id="Shoe-4" data-name="Shoe" d="M0,4.588.239.728A.255.255,0,0,1,.471.49L5.818,0l9.17,3.4a.51.51,0,0,1,.313.617l-.377,1.331H.506Z" transform="translate(0 4.843)" fill="#191847"/>
          </g>
          <path id="hair" d="M20.823,5.844a7.3,7.3,0,0,0-.342-1.138,5.325,5.325,0,0,0-.671-1.249,9.436,9.436,0,0,0-1.774-1.926A5.792,5.792,0,0,0,13.745.15a4.4,4.4,0,0,0-2.152.877c-.574.442-1.127,1.092-1.871,1.139-.809.051-1.551-.664-2.2-1.106a5.91,5.91,0,0,0-2.366-1A3.932,3.932,0,0,0,1.389,1.483,4.774,4.774,0,0,0,.264,6.232a2.129,2.129,0,0,0,.53.784c.217.2.549.408.637.724.094.336-.186.769-.294,1.072A3.157,3.157,0,0,0,.9,10.172,3.51,3.51,0,0,0,1.974,12.2a3.57,3.57,0,0,0,1.853.952,5.194,5.194,0,0,0,1.394.108,4.333,4.333,0,0,0,.66-.133.6.6,0,0,1,.525.128,4.3,4.3,0,0,0,2.776.689,4.459,4.459,0,0,0,2.486-.847,2.343,2.343,0,0,0,.565-2.457c.189.094.712.152.4-.222a1.693,1.693,0,0,0-.517-.3,1.881,1.881,0,0,1-.517-.4,1.612,1.612,0,0,1,.735-2.252c1.084-.333,1.326,1.2,2.1,1.6.445.228.91-.084,1.243-.4A4.984,4.984,0,0,0,16.689,7.1c.216-.474.418-.954.638-1.425.1-.22.459-.842.28-1.091a3.336,3.336,0,0,1,2.309.591,1.58,1.58,0,0,1,.634.677c.032.066.1.263.187.271.161.015.1-.182.085-.275" transform="matrix(0.966, -0.259, 0.259, 0.966, 3040.414, 6900.956)" fill="#191847"/>
        </g>
      </g>
    </g>
  </g>
</svg>
