<svg xmlns="http://www.w3.org/2000/svg" xmlns:xlink="http://www.w3.org/1999/xlink" width="71" height="119" viewBox="0 0 71 119">
  <defs>
    <clipPath id="clip-Mesa_de_trabajo_1">
      <rect width="71" height="119"/>
    </clipPath>
  </defs>
  <g id="Mesa_de_trabajo_1" data-name="Mesa de trabajo – 1" clip-path="url(#clip-Mesa_de_trabajo_1)">
    <rect width="71" height="119" fill="#fff"/>
    <g id="Grupo_12107" data-name="Grupo 12107" transform="translate(-13 -14.821)">
      <g id="Grupo_12105" data-name="Grupo 12105" transform="translate(-3478.04 -2684)">
        <g id="Group" transform="translate(3491.04 2713.723) rotate(-7)">
          <path id="base" d="M6.71,0H39.494A6.71,6.71,0,0,1,46.2,6.71V88.275a6.71,6.71,0,0,1-6.71,6.71H6.71A6.71,6.71,0,0,1,0,88.275V6.71A6.71,6.71,0,0,1,6.71,0Z" fill="#f2f2f2"/>
          <path id="Screen" d="M37.547,90.81H4.473A4.473,4.473,0,0,1,0,86.336V4.473A4.473,4.473,0,0,1,4.473,0H9.756V.746a2.538,2.538,0,0,0,2.535,2.535H29.856A2.538,2.538,0,0,0,32.391.746V0h5.156A4.473,4.473,0,0,1,42.02,4.473V86.336a4.473,4.473,0,0,1-4.473,4.473Z" transform="translate(2.025 2.025)" fill="#dde3e9"/>
        </g>
        <g id="Grupo_9327" data-name="Grupo 9327" transform="translate(3477 1763.077)">
          <g id="Grupo_9325" data-name="Grupo 9325" transform="translate(-324.494 881.663)">
            <g id="Grupo_9299" data-name="Grupo 9299" transform="translate(384.752 54.081)">
              <g id="Grupo_9298" data-name="Grupo 9298" transform="translate(0 0)">
                <g id="Grupo_9297" data-name="Grupo 9297">
                  <g id="Grupo_9296" data-name="Grupo 9296">
                    <g id="Grupo_9295" data-name="Grupo 9295">
                      <g id="Grupo_9294" data-name="Grupo 9294">
                        <path id="Trazado_4173" data-name="Trazado 4173" d="M409.181,66.339a1.194,1.194,0,0,0,0-.21c0-.153-.01-.357-.018-.618-.006-.136-.006-.288-.02-.455s-.049-.349-.077-.545l-.091-.636-.176-.71a11.509,11.509,0,0,0-1.5-3.445,12.155,12.155,0,0,0-9.137-5.583A12.547,12.547,0,0,0,396.5,54.1c-.281.02-.568.014-.852.055l-.858.129a12.22,12.22,0,0,0-3.39,1.157,13.049,13.049,0,0,0-3.046,2.214,12.792,12.792,0,0,0-2.292,3.19,11.585,11.585,0,0,0-1.193,3.888,7.722,7.722,0,0,0-.088,1.037,9.347,9.347,0,0,0-.019,1.048,12.423,12.423,0,0,0,.266,2.1,12.271,12.271,0,0,0,1.759,4.18l-.013-.127-1.709,4.258-.1.252.262-.072,4.552-1.252-.112-.021a12.22,12.22,0,0,0,5.2,2.272,11.068,11.068,0,0,0,2.665.166,8.559,8.559,0,0,0,1.28-.121l.623-.1c.2-.038.4-.1.6-.149a12.179,12.179,0,0,0,6.925-4.751,11.64,11.64,0,0,0,1.491-2.827L408.68,70l.154-.6.137-.553c.034-.177.053-.349.077-.509.041-.322.1-.6.109-.852s.015-.452.021-.626.006-.285.009-.382a.065.065,0,1,0-.023,0c-.008.1-.018.222-.03.38s-.026.379-.042.622-.081.526-.129.844A12.109,12.109,0,0,1,399.981,78c-.2.047-.391.107-.593.144l-.612.092a8.419,8.419,0,0,1-1.257.113,10.849,10.849,0,0,1-2.612-.173,12,12,0,0,1-5.089-2.241l-.051-.038-.061.017-4.555,1.242.161.18q.838-2.081,1.714-4.256l.027-.067-.04-.06a12.021,12.021,0,0,1-1.718-4.087,12.2,12.2,0,0,1-.26-2.052,9.11,9.11,0,0,1,.018-1.025,7.461,7.461,0,0,1,.086-1.014,11.345,11.345,0,0,1,1.163-3.8,12.559,12.559,0,0,1,2.236-3.124,12.821,12.821,0,0,1,2.977-2.174,12.005,12.005,0,0,1,3.317-1.145l.841-.13c.278-.042.559-.037.835-.057A12,12,0,0,1,407.171,59.8a11.583,11.583,0,0,1,1.528,3.389l.187.7.1.629.089.54c.018.166.023.317.033.452.019.26.034.463.045.615A1.151,1.151,0,0,0,409.181,66.339Z" transform="translate(-384.752 -54.081)" fill="#1a2341"/>
                      </g>
                    </g>
                  </g>
                </g>
              </g>
            </g>
          </g>
        </g>
        <path id="Trazado_4178" data-name="Trazado 4178" d="M415.615,202.5l-1.531-1.5V198.5a.581.581,0,0,0-.582-.581h-.811a.546.546,0,0,0-.546.546v.625l-3.476-3.407a1.059,1.059,0,0,0-1.482,0l-6.946,6.809a.972.972,0,0,0,.68,1.665h.37v5.374a1,1,0,0,0,1,1h11.266a1,1,0,0,0,1-1v-5.374h.37a.972.972,0,0,0,.68-1.665Z" transform="translate(3141.4 2506.538)" fill="#00a19a"/>
        <g id="Grupo_9328" data-name="Grupo 9328" transform="translate(3545.739 2711.319) rotate(-14)">
          <g id="Grupo_9310" data-name="Grupo 9310" transform="translate(0 -0.7)">
            <g id="Grupo_9309" data-name="Grupo 9309">
              <g id="Grupo_9308" data-name="Grupo 9308">
                <g id="Grupo_9307" data-name="Grupo 9307">
                  <path id="Trazado_4177" data-name="Trazado 4177" d="M1.725,3.466.069.755A.472.472,0,1,1,.874.263L2.045,2.18,6.974-.634a.472.472,0,0,1,.646.166.472.472,0,0,1-.166.646Z" transform="translate(0 0.7)" fill="#fff"/>
                </g>
              </g>
            </g>
          </g>
        </g>
      </g>
      <g id="Grupo_12106" data-name="Grupo 12106" transform="translate(18.707 -501)">
        <g id="Grupo_2" data-name="Grupo 2" transform="translate(-894 -2860)">
          <g id="Bottom_Standing_Baggy_Pants" data-name="Bottom/Standing/Baggy Pants" transform="translate(889.293 3435)">
            <path id="leg_skin_" data-name="leg [skin]" d="M0,0,12.007,30.39,20.06,56.083h3.18L10.929,0Z" transform="translate(28.488)" fill="#b28b67"/>
            <path id="leg_skin_2" data-name="leg [skin]" d="M22.859,0c-.128,10.679-1.993,25.058-2.29,25.723S0,42.654,0,42.654L2.19,45S26.108,31.053,27.215,29.193,31.925,10.217,34.818,0Z" transform="translate(3.211)" fill="#b28b67"/>
            <g id="Right_Shoe_" data-name="Right {Shoe]" transform="translate(46.707 49)">
              <path id="shoe" d="M1.094,1.482a.489.489,0,0,0-.628.33L0,3.457A15.716,15.716,0,0,0,.22,5.388h13.8s.538-1.778-.621-1.92-1.925-.256-1.925-.256L5.059.353a.245.245,0,0,0-.326.13l-.412,1a5.545,5.545,0,0,1-1.743.5Z" transform="translate(0.245 4.397)" fill="#191847"/>
            </g>
            <g id="Right_Shoe_2" data-name="Right {Shoe]" transform="translate(7.071 37.159) rotate(45)">
              <path id="shoe-2" data-name="shoe" d="M1.094,1.482a.489.489,0,0,0-.628.33L0,3.457A15.716,15.716,0,0,0,.22,5.388h13.8s.538-1.778-.621-1.92-1.925-.256-1.925-.256L5.059.353a.245.245,0,0,0-.326.13l-.412,1a5.545,5.545,0,0,1-1.743.5Z" transform="translate(0.245 4.397)" fill="#191847"/>
            </g>
            <path id="Pant" d="M9.628,53.437,24.748,51.8,13.542,0H0Z" transform="translate(26.933 0)" fill="#00a19a"/>
            <path id="Pant-2" data-name="Pant" d="M0,38.873,9.918,50.612S25.587,33.5,28.188,28.279,32.864,0,32.864,0H17.618S16.485,20.287,16.09,21.231,0,38.873,0,38.873Z" transform="translate(6.339)" fill="#05cbc2"/>
          </g>
          <g id="Head_Front_Chongo" data-name="Head/Front/Chongo" transform="translate(905 3388)">
            <g id="Head" transform="translate(13.189 7.102)">
              <path id="Head_skin_" data-name="Head [skin]" d="M0,18,1.967,8.5A6.82,6.82,0,0,1,.252,3.7C.609-1.572,7.7-.411,9.082,2.252s1.216,9.419-.567,9.895c-.711.19-2.226-.275-3.768-1.238L5.714,18Z" transform="translate(-0.19 -0.102)" fill="#b28b67"/>
            </g>
            <path id="hair" d="M10.682,5.962A7.663,7.663,0,0,0,8.225,5.69a4.226,4.226,0,0,0,.3-2.136,6.509,6.509,0,0,0-.693-1.931,2.642,2.642,0,0,0-.513-.8A1.75,1.75,0,0,0,6.49.379a2.219,2.219,0,0,0-.955,0c-.139.029-.264.093-.4.128S4.928.455,4.826.367a1.747,1.747,0,0,0-.91-.353A2.348,2.348,0,0,0,2.88.139a2.028,2.028,0,0,0-.863.553,1.447,1.447,0,0,0-.258.4c-.025.06-.029.1-.089.118s-.121.021-.178.04A2.237,2.237,0,0,0,.205,2.412,3.7,3.7,0,0,0,0,3.931,6.6,6.6,0,0,0,1.129,6.818,3.592,3.592,0,0,0,2.985,7.866a5.309,5.309,0,0,0-.97,1.808,8.849,8.849,0,0,0-.444,2.2,7.169,7.169,0,0,0,.11,2.165,2.347,2.347,0,0,0,1.049,1.528,5.012,5.012,0,0,0,.808.379,5.317,5.317,0,0,0,.832.267,1.67,1.67,0,0,0,1.581-.338,2.967,2.967,0,0,0,.425-.54c.039-.068.063-.113.015-.179a1.283,1.283,0,0,0-.224-.2,2.108,2.108,0,0,1-.745-1.4,1.492,1.492,0,0,1,.645-1.563,2.388,2.388,0,0,1,2.056.376A3.362,3.362,0,0,1,9.752,10.2c.925-.465,1.987-.52,2.938-.919a1.752,1.752,0,0,0,.682-.434.883.883,0,0,0,.2-.321.519.519,0,0,0-.136-.4A7.5,7.5,0,0,0,10.682,5.962Z" transform="translate(9.54 0.979)" fill="#191847"/>
          </g>
          <g id="Body_Hoodie" data-name="Body/Hoodie" transform="translate(898.357 3407.141)">
            <path id="Arms_skin_" data-name="Arms [skin]" d="M.3,21.23c-.273-.168-.572-.8.15-1.3,1.8-1.234,4.394-3.394,4.745-4.105C5.912,14.373,8.353.2,8.353.2l5.112.02S8.731,15.5,8.353,16.438c-.566,1.4.632,3.54,1.144,4.688-.807.361-1.183-.1-1.593-.561a1.452,1.452,0,0,0-2-.478c-1.39.646-2.539,1.673-3.908,1.673A3.178,3.178,0,0,1,.3,21.23ZM44.317,7.469l-7.727-3.2L38.315,0l7.8,5.73a21,21,0,0,1,5.3,2.132c.336.306.741.925-.65.818S47.913,8.523,47.721,9s.65,1.042.262,1.682a.184.184,0,0,1-.169.091Q47.128,10.771,44.317,7.469Z" transform="translate(0 23.418)" fill="#b28b67"/>
            <path id="Coat_Back" data-name="Coat Back" d="M0,.546,2.076,0c8.41,6.07,12.757,18.765,22.942,24.8l-2.057,3.061C6.154,27.258.649,11.791,0,.546Z" transform="matrix(0.996, 0.087, -0.087, 0.996, 22.929, 1.62)" fill="#1a2341"/>
            <path id="Shirt" d="M0,27.889H18.718c.855,0,.694-1.235.57-1.858-1.427-7.192-7-14.946-7-25.184L6.892,0C2.426,7.182.882,16.025,0,27.889Z" transform="translate(13.66 0.859)" fill="#dde3e9"/>
            <path id="Coat_Front" data-name="Coat Front" d="M.025,39.023A52.378,52.378,0,0,1,9.3,7.835a2.839,2.839,0,0,1-2.43-1.493C4.9,2.781,5.614.821,7.723.177s3.99.683,7.35.683a2.619,2.619,0,0,1,.4.029l1.792.1s7.274,24.652,4.012,32.9H6.482a46.945,46.945,0,0,1-2.443,5.137Z" transform="translate(5.073 0)" fill="#263258"/>
            <path id="Shade" d="M5.53,8.941H0C1.014,6.5,2.133,3.5,3.325,0c.5,4.31,1.238,7.317,2.2,8.94Z" transform="translate(11.555 24.945)" fill="rgba(0,0,0,0.1)"/>
          </g>
        </g>
      </g>
    </g>
  </g>
</svg>
