
<svg xmlns="http://www.w3.org/2000/svg" xmlns:xlink="http://www.w3.org/1999/xlink" width="71" height="109" viewBox="0 0 71 109">
  <defs>
    <clipPath id="clip-Mesa_de_trabajo_3">
      <rect width="71" height="109"/>
    </clipPath>
  </defs>
  <g id="Mesa_de_trabajo_3" data-name="Mesa de trabajo – 3" clip-path="url(#clip-Mesa_de_trabajo_3)">
    <rect width="71" height="109" fill="#fff"/>
    <g id="Grupo_12109" data-name="Grupo 12109" transform="translate(-13798 -2398.744)">
      <g id="Grupo_12104" data-name="Grupo 12104" transform="translate(13775.96 1355)">
        <g id="Group" transform="translate(22.04 1058.646) rotate(-7)">
          <path id="base" d="M6.71,0H39.494A6.71,6.71,0,0,1,46.2,6.71V88.275a6.71,6.71,0,0,1-6.71,6.71H6.71A6.71,6.71,0,0,1,0,88.275V6.71A6.71,6.71,0,0,1,6.71,0Z" fill="#f2f2f2"/>
          <path id="Screen" d="M37.547,90.81H4.473A4.473,4.473,0,0,1,0,86.336V4.473A4.473,4.473,0,0,1,4.473,0H9.756V.746a2.538,2.538,0,0,0,2.535,2.535H29.856A2.538,2.538,0,0,0,32.391.746V0h5.156A4.473,4.473,0,0,1,42.02,4.473V86.336a4.473,4.473,0,0,1-4.473,4.473Z" transform="translate(2.025 2.025)" fill="#dde3e9"/>
        </g>
        <g id="A_Human_Sitting" data-name="A Human/Sitting" transform="translate(26.016 1059.477)">
          <g id="Head_Front" data-name="Head/Front" transform="translate(14.606 7.449)">
            <g id="Head" transform="translate(1.401 2.269)">
              <path id="Head_skin_" data-name="Head [skin]" d="M0,20.456,2.274,9.664A7.671,7.671,0,0,1,.291,4.21C.7-1.786,8.905-.467,10.5,2.559s1.406,10.7-.656,11.245c-.822.216-2.574-.313-4.356-1.406l1.119,8.058Z" transform="translate(0 0)" fill="#b28b67"/>
            </g>
            <path id="Hair" d="M2.858,12.792C2.032,9.1-.323,6.584.037,4.934A2.8,2.8,0,0,1,1.954,2.882S2.759-.389,7.149.1s7.069,2.319,5.912,6.346a9.234,9.234,0,0,0-4.123.275c-.845.315-1.209,1.953-1.209,1.953h-.8S5.759,6.73,4.623,7.245s-.516,2.5-.516,2.5l-.4,3.044Z" transform="translate(0 -0.05)" fill="#191847"/>
          </g>
          <g id="Bottom_Skinny_Jeans_1" data-name="Bottom/Skinny Jeans 1" transform="translate(2.347 41.793)">
            <g id="Seat" transform="translate(0 11.505)">
              <g id="Seat-2" data-name="Seat">
                <path id="Seat_Stuff" data-name="Seat Stuff" d="M7.378,0H27.161l2.592,33.035H2.432Z" transform="translate(-2.358)" fill="#c5cfd6"/>
                <path id="Seat_Stuff-2" data-name="Seat Stuff" d="M7.367,0h6.084l3.642,33.035H2.347Z" transform="translate(-2.347)" fill="rgba(0,0,0,0.1)"/>
              </g>
            </g>
            <path id="Legs_skin_" data-name="Legs [skin]" d="M15.675,38.992c-.275-3.485-.785-15.548-.274-21.132.216-2.357.448-4.6.676-6.591C11.177,20.115,3.16,33.057,3.16,33.057L0,31.608S3.722,19.3,6.1,14.224C8.823,8.435,11.372,3.477,12.445,1.731c1.688-2.747,4.626-1.788,6.178-.126,2.26-1.362,6.051.388,6.049,2.337-.008,5.83-5.307,33.307-5.584,35.044A1.88,1.88,0,0,1,17.2,40.467,1.468,1.468,0,0,1,15.675,38.992Z" transform="translate(29.883 4.112)" fill="#b28b67"/>
            <path id="LegLower" d="M0,30.787,1.369,2.839c1.006-4.832,9.578-2.578,9.578.012,0,5.88-3.5,26.187-3.5,27.939Z" transform="translate(40.638 2.232) rotate(20)" fill="#1a2341"/>
            <g id="Left_shoe_" data-name="Left [shoe]" transform="translate(29.859 32.589) rotate(30)">
              <path id="shoe" d="M1.178,1.259A.525.525,0,0,0,.5,1.62L0,3.42A17.475,17.475,0,0,0,.237,5.534H15.091s.579-1.946-.668-2.1-2.073-.28-2.073-.28L5.446.023A.262.262,0,0,0,5.1.166L4.652,1.26a5.9,5.9,0,0,1-1.877.548Z" transform="translate(0 0)"/>
            </g>
            <g id="Right_shoe_" data-name="Right [shoe]" transform="translate(44.173 39.954)">
              <path id="shoe-2" data-name="shoe" d="M1.227,1.627A.548.548,0,0,0,.524,2L0,3.851A17.764,17.764,0,0,0,.247,6.025H15.722s.6-2-.7-2.162-2.159-.288-2.159-.288L5.674.356A.274.274,0,0,0,5.308.5L4.846,1.628a6.2,6.2,0,0,1-1.955.564Z" transform="translate(0 -0.332)"/>
            </g>
            <path id="Leg_and_Butt" data-name="Leg and Butt" d="M46.853,10.036c0,7.318-3.462,24.389-3.464,26l-7.448.006s1.635-22.848,1.16-23.094-19.494,1.906-25.2,1.906C3.679,14.854.276,9.647,0,0H16.293c3.317.356,20.622,3.861,27.048,5.065C46.093,5.581,46.853,8.02,46.853,10.036Z" transform="translate(8.462)" fill="#263258"/>
          </g>
          <g id="Body_Long_Sleeve_1" data-name="Body/Long Sleeve 1" transform="translate(6.067 23.058)">
            <path id="Arms_skin_" data-name="Arms [skin]" d="M14.915,14.173,19.1,11.866s.88-3.364,2.1-3.385c.316-.148.2.5.15,1.144s-.016,1.272.574,1.151c1.189-.246,4.09-2.412,4.59-1.972.74.651.08,2.649-.7,3.643-1.452,1.858-2.655,2.493-5.627,3.325a19.719,19.719,0,0,0-5.04,2.616ZM0,9.755,9.523,4.518A23.6,23.6,0,0,1,14.2.119c.47-.2,1.291-.316.523,1.053S13.212,4.015,13.6,4.436c.172.185.457.175.762.165a1.088,1.088,0,0,1,1.072.368q.467.7-5,2.214l-6.92,6.361Z" transform="translate(22.337 2.008)" fill="#997659"/>
            <path id="Sleeve" d="M1.512,1.761A23.33,23.33,0,0,0,14.477,0l1.188,4.413C11.921,7.123,6.956,9.05,3,8.308A3.653,3.653,0,0,1,1.512,1.761Z" transform="translate(15.93 9.093) rotate(-9)" fill="#01817c"/>
            <path id="Clothes" d="M9.17,39.248c-3.35-.437-6.468-.874-8.278-.515-3.106-10.125,2.9-14.24,2.9-20.718C3.8,10.92,9.474,0,10.309,0h7.613c.42,5.415,2.532,11.384,4.266,17.28,5.533,1.261,17.818-3.128,17.818-3.128s3.1,6.442,2.867,9.185c-7.151,3.75-13.279,5.422-18.329,5.533a17.51,17.51,0,0,1-1.429,8.485C22.2,39.311,19.663,39.9,16.569,39.9A59.922,59.922,0,0,1,9.17,39.248Z" transform="translate(0)" fill="#00a19a"/>
          </g>
        </g>
        <g id="Grupo_17" data-name="Grupo 17" transform="translate(8 108)">
          <g id="Grupo_9325" data-name="Grupo 9325" transform="translate(-324.494 881.663)">
            <g id="Grupo_9299" data-name="Grupo 9299" transform="translate(384.752 54.081)">
              <g id="Grupo_9298" data-name="Grupo 9298" transform="translate(0 0)">
                <g id="Grupo_9297" data-name="Grupo 9297">
                  <g id="Grupo_9296" data-name="Grupo 9296">
                    <g id="Grupo_9295" data-name="Grupo 9295">
                      <g id="Grupo_9294" data-name="Grupo 9294">
                        <path id="Trazado_4173" data-name="Trazado 4173" d="M409.181,66.339a1.194,1.194,0,0,0,0-.21c0-.153-.01-.357-.018-.618-.006-.136-.006-.288-.02-.455s-.049-.349-.077-.545l-.091-.636-.176-.71a11.509,11.509,0,0,0-1.5-3.445,12.155,12.155,0,0,0-9.137-5.583A12.547,12.547,0,0,0,396.5,54.1c-.281.02-.568.014-.852.055l-.858.129a12.22,12.22,0,0,0-3.39,1.157,13.049,13.049,0,0,0-3.046,2.214,12.792,12.792,0,0,0-2.292,3.19,11.585,11.585,0,0,0-1.193,3.888,7.722,7.722,0,0,0-.088,1.037,9.347,9.347,0,0,0-.019,1.048,12.423,12.423,0,0,0,.266,2.1,12.271,12.271,0,0,0,1.759,4.18l-.013-.127-1.709,4.258-.1.252.262-.072,4.552-1.252-.112-.021a12.22,12.22,0,0,0,5.2,2.272,11.068,11.068,0,0,0,2.665.166,8.559,8.559,0,0,0,1.28-.121l.623-.1c.2-.038.4-.1.6-.149a12.179,12.179,0,0,0,6.925-4.751,11.64,11.64,0,0,0,1.491-2.827L408.68,70l.154-.6.137-.553c.034-.177.053-.349.077-.509.041-.322.1-.6.109-.852s.015-.452.021-.626.006-.285.009-.382a.065.065,0,1,0-.023,0c-.008.1-.018.222-.03.38s-.026.379-.042.622-.081.526-.129.844A12.109,12.109,0,0,1,399.981,78c-.2.047-.391.107-.593.144l-.612.092a8.419,8.419,0,0,1-1.257.113,10.849,10.849,0,0,1-2.612-.173,12,12,0,0,1-5.089-2.241l-.051-.038-.061.017-4.555,1.242.161.18q.838-2.081,1.714-4.256l.027-.067-.04-.06a12.021,12.021,0,0,1-1.718-4.087,12.2,12.2,0,0,1-.26-2.052,9.11,9.11,0,0,1,.018-1.025,7.461,7.461,0,0,1,.086-1.014,11.345,11.345,0,0,1,1.163-3.8,12.559,12.559,0,0,1,2.236-3.124,12.821,12.821,0,0,1,2.977-2.174,12.005,12.005,0,0,1,3.317-1.145l.841-.13c.278-.042.559-.037.835-.057A12,12,0,0,1,407.171,59.8a11.583,11.583,0,0,1,1.528,3.389l.187.7.1.629.089.54c.018.166.023.317.033.452.019.26.034.463.045.615A1.151,1.151,0,0,0,409.181,66.339Z" transform="translate(-384.752 -54.081)" fill="#1a2341"/>
                      </g>
                    </g>
                  </g>
                </g>
              </g>
            </g>
          </g>
        </g>
        <path id="Trazado_7" data-name="Trazado 7" d="M415.615,202.5l-1.531-1.5V198.5a.581.581,0,0,0-.582-.581h-.811a.546.546,0,0,0-.546.546v.625l-3.476-3.407a1.059,1.059,0,0,0-1.482,0l-6.946,6.809a.972.972,0,0,0,.68,1.665h.37v5.374a1,1,0,0,0,1,1h11.266a1,1,0,0,0,1-1v-5.374h.37a.972.972,0,0,0,.68-1.665Z" transform="translate(-327.6 851.461)" fill="#00a19a"/>
        <g id="Grupo_18" data-name="Grupo 18" transform="translate(76.739 1056.242) rotate(-14)">
          <g id="Grupo_9310" data-name="Grupo 9310" transform="translate(0 -0.7)">
            <g id="Grupo_9309" data-name="Grupo 9309">
              <g id="Grupo_9308" data-name="Grupo 9308">
                <g id="Grupo_9307" data-name="Grupo 9307">
                  <path id="Trazado_4177" data-name="Trazado 4177" d="M1.725,3.466.069.755A.472.472,0,1,1,.874.263L2.045,2.18,6.974-.634a.472.472,0,0,1,.646.166.472.472,0,0,1-.166.646Z" transform="translate(0 0.7)" fill="#fff"/>
                </g>
              </g>
            </g>
          </g>
        </g>
      </g>
    </g>
  </g>
</svg>
